# AST/ASF file generated using VICON BodyLanguage
# -----------------------------------------------
:version 1.10
:name VICON
:units
  mass 1.0
  length 0.45
  angle deg
:documentation
   .ast/.asf automatically generated from VICON data using
   VICON BodyBuilder and BodyLanguage model FoxedUp or BRILLIANT.MOD
:root
   order TX TY TZ RX RY RZ
   axis XYZ
   position 0 0 0  
   orientation 0 0 0 
:bonedata
  begin
     id 1 
     name lhipjoint
     direction 0.537252 -0.787203 0.302774 
     length 2.29576 
     axis 0 0 0  XYZ
  end
  begin
     id 2 
     name lfemur
     direction 0.34202 -0.939693 0  
     length 7.31114  
     axis 0 0 20  XYZ
    dof rx ry rz
    limits (-160.0 20.0)
           (-70.0 70.0)
           (-60.0 70.0)
  end
  begin
     id 3 
     name ltibia
     direction 0.34202 -0.939693 0   
     length 8.36008   
     axis 0 0 20   XYZ
    dof rx
    limits (-10.0 170.0)
  end
  begin
     id 4 
     name lfoot
     direction 0.0969116 -0.266263 0.959016   
     length 2.16704   
     axis -90 7.62852e-016 20   XYZ
    dof rx rz
    limits (-45.0 90.0)
           (-70.0 20.0)
  end
  begin
     id 5 
     name ltoes
     direction 1.53563e-011 -4.21779e-011 1   
     length 1.08338   
     axis -90 7.62852e-016 20   XYZ
    dof rx
    limits (-90.0 20.0)
  end
  begin
     id 6 
     name rhipjoint
     direction -0.588228 -0.754791 0.290308   
     length 2.39434  
     axis 0 0 0  XYZ 
  end
  begin
     id 7 
     name rfemur
     direction -0.34202 -0.939693 0   
     length 7.45207   
     axis 0 0 -20   XYZ
    dof rx ry rz
    limits (-160.0 20.0)
           (-70.0 70.0)
           (-70.0 60.0)
  end
  begin
     id 8 
     name rtibia
     direction -0.34202 -0.939693 0   
     length 8.03565   
     axis 0 0 -20   XYZ
    dof rx
    limits (-10.0 170.0)
 end
 begin
     id 9 
     name rfoot
     direction -0.107009 -0.294004 0.949795   
     length 2.11509  
     axis -90 -7.62852e-016 -20   XYZ
    dof rx rz
    limits (-45.0 90.0)
           (-20.0 70.0)
  end
  begin
     id 10 
     name rtoes
     direction -1.53533e-011 -4.22004e-011 1   
     length 1.05493   
     axis -90 -7.62852e-016 -20   XYZ
    dof rx
    limits (-90.0 20.0)
  end
  begin
     id 11 
     name lowerback
     direction -0.0115208 0.997969 -0.0626515   
     length 2.03153   
     axis 0 0 0   XYZ
    dof rx ry rz
    limits (-20.0 45.0)
           (-30.0 30.0)
           (-30.0 30.0)
  end
  begin
     id 12 
     name upperback
     direction -0.00423475 0.999974 -0.00583614   
     length 2.03619   
     axis 0 0 0   XYZ
    dof rx ry rz
    limits (-20.0 45.0)
           (-30.0 30.0)
           (-30.0 30.0)
  end
  begin
     id 13 
     name thorax
     direction 0.00289429 0.999728 0.0231573   
     length 2.03921   
     axis 0 0 0   XYZ
    dof rx ry rz
    limits (-20.0 45.0)
           (-30.0 30.0)
           (-30.0 30.0)
  end
  begin
     id 14 
     name lowerneck
     direction 0.0188995 0.987777 0.154721   
     length 1.78836   
     axis 0 0 0   XYZ
    dof rx ry rz
    limits (-20.0 45.0)
           (-30.0 30.0)
           (-30.0 30.0)
  end
  begin
     id 15 
     name upperneck
     direction -0.00612612 0.992995 -0.118   
     length 1.81789   
     axis 0 0 0   XYZ
    dof rx ry rz
    limits (-20.0 45.0)
           (-30.0 30.0)
           (-30.0 30.0)
  end
  begin
     id 16
     name head
     direction -0.00420226 0.998397 -0.0564482  
     length 1.82234  
     axis 0 0 0   XYZ
    dof rx ry rz
    limits (-20.0 45.0)
           (-30.0 30.0)
           (-30.0 30.0)
  end
  begin
     id 17 
     name lclavicle
     direction 0.916488 0.396539 0.0529676  
     length 3.51732  
     axis 0 0 0   XYZ
    dof ry rz
    limits (-20.0 10.0)
           (0.0 20.0)
  end
  begin
     id 18 
     name lhumerus
     direction 1 -4.4896e-011 8.36962e-028   
     length 5.45077   
     axis 180 -30 -90   XYZ
    dof rx ry rz
    limits (-60.0 90.0)
           (-90.0 90.0)
           (-90.0 90.0)
  end
  begin
     id 19
     name lradius
     direction 1 -4.48962e-011 3.01407e-027   
     length 3.05488   
     axis 180 -30 -90   XYZ
    dof rx
    limits (-10.0 170.0)
  end
  begin
     id 20
     name lwrist
     direction 1 -4.49002e-011 4.72961e-027   
     length 1.52744   
     axis -2.72261e-015 90 90   XYZ
    dof ry
    limits (-180.0 0.0)
 end
  begin
     id 21 
     name lhand
     direction 1 -4.4899e-011 9.45681e-027   
     length 0.638818   
     axis -6.0311e-015 90 90   XYZ
    dof rx rz
    limits (-90.0 90.0)
           (-45.0 45.0)
  end
  begin
     id 22 
     name lfingers
     direction 1 -4.48871e-011 1.88632e-026   
     length 0.515032   
     axis -1.20625e-014 90 90   XYZ
    dof rx
    limits (0.0 90.0)
  end
  begin
     id 23
     name lthumb
     direction 0.707107 -6.34964e-011 0.707107   
     length 0.739485   
     axis -90 45 6.32835e-014   XYZ
    dof rx rz
    limits (-45.0 45.0)
           (-45.0 45.0)
  end
  begin
     id 24 
     name rclavicle
     direction -0.949427 0.303202 0.0815894   
     length 3.76167  
     axis 0 0 0   XYZ 
    dof ry rz
    limits (-10.0 20.0)
           (-20.0 0.0)
  end
  begin
     id 25 
     name rhumerus
     direction -1 -4.48971e-011 -6.43969e-018  
     length 4.88702   
     axis 180 30 90   XYZ
    dof rx ry rz
    limits (-90.0 60.0)
           (-90.0 90.0)
           (-90.0 90.0)
  end
  begin
     id 26 
     name rradius
     direction -1 -4.48987e-011 5.46662e-027   
     length 3.22603   
     axis 180 30 90   XYZ
    dof rx
    limits (-10.0 170.0)
  end
  begin
     id 27 
     name rwrist
     direction -1 -4.48956e-011 4.72476e-027   
     length 1.61302   
     axis -2.72261e-015 -90 -90   XYZ
    dof ry
    limits (-180.0 0.0)
  end
  begin
     id 28
     name rhand
     direction -1 -4.4889e-011 9.43571e-027   
     length 0.716293   
     axis -6.0311e-015 -90 -90   XYZ
    dof rx rz
    limits (-90.0 90.0)
           (-45.0 45.0)
  end
  begin
     id 29
     name rfingers
     direction -1 -4.48887e-011 1.88701e-026   
     length 0.577494   
     axis -1.20625e-014 -90 -90   XYZ
    dof rx
    limits (0.0 90.0)
  end
  begin
     id 30
     name rthumb
     direction -0.707107 -6.34825e-011 0.707107   
     length 0.829169   
     axis -90 -45 -6.32835e-014   XYZ
    dof rx rz
    limits (-45.0 45.0)
           (-45.0 45.0)
  end
:hierarchy
  begin
    root lhipjoint rhipjoint lowerback
    lhipjoint lfemur
    lfemur ltibia
    ltibia lfoot
    lfoot ltoes
    rhipjoint rfemur
    rfemur rtibia
    rtibia rfoot
    rfoot rtoes
    lowerback upperback
    upperback thorax
    thorax lowerneck lclavicle rclavicle
    lowerneck upperneck
    upperneck head
    lclavicle lhumerus
    lhumerus lradius
    lradius lwrist
    lwrist lhand lthumb
    lhand lfingers
    rclavicle rhumerus
    rhumerus rradius
    rradius rwrist
    rwrist rhand rthumb
    rhand rfingers
  end

#!OML:ASF F:\VICON\USERDATA\INSTALL\rory3\rory3.ASF
:FULLY-SPECIFIED
:DEGREES
1464
root 1.59216 18.5462 0.277259 -205.005 87.3263 -217.888
lowerback -7.5002 -0.572775 -1.18251
upperback -2.92976 -0.579858 -1.0012
thorax 1.18256 -0.253071 -0.413865
lowerneck -21.7451 -0.859262 3.36329
upperneck 12.6415 -2.1842 0.166973
head 7.39004 -0.848034 -0.753772
rclavicle -4.70871e-015 -7.95139e-016
rhumerus 11.5369 29.4811 -3.30599
rradius 125.095
rwrist 187.322
rhand -20.3081 -20.4452
rfingers 7.12502
rthumb 6.0424 -50.3391
lclavicle -4.70871e-015 -7.95139e-016
lhumerus -53.3103 -34.996 70.0894
lradius 93.1652
lwrist 9.36406
lhand 0.991939 23.6701
lfingers 7.12502
lthumb 26.5401 51.8308
rfemur -6.86607 -9.98864 16.3889
rtibia 3.10104e-014
rfoot -4.13751 7.88803
rtoes -8.69728
lfemur -15.9466 7.33063 -20.7147
ltibia 16.7952
lfoot -13.0178 -5.13645
ltoes -26.0496
1465
root 1.59249 18.5461 0.27965 -204.78 87.3578 -217.734
lowerback -7.474 -0.582563 -1.22029
upperback -2.89238 -0.592234 -0.9752
thorax 1.20724 -0.259789 -0.366911
lowerneck -21.83 -0.83197 3.39063
upperneck 12.6692 -2.16422 0.195455
head 7.41366 -0.833255 -0.74703
rclavicle 1.18028e-015 -2.127e-014
rhumerus 10.3303 31.2619 -4.0517
rradius 125.081
rwrist 188.13
rhand -20.46 -20.9676
rfingers 7.12502
rthumb 5.89571 -50.8656
lclavicle 1.18028e-015 -2.127e-014
lhumerus -53.5905 -35.1622 70.037
lradius 93.3209
lwrist 9.43531
lhand 0.922621 23.6335
lfingers 7.12502
lthumb 26.4738 51.8043
rfemur -6.95077 -9.96545 16.4322
rtibia -1.82882e-014
rfoot -4.12575 7.91295
rtoes -8.41671
lfemur -16.0197 7.31694 -20.6903
ltibia 16.8033
lfoot -13.0325 -5.07604
ltoes -26.1802
1466
root 1.59274 18.5459 0.281775 -205.758 87.3494 -218.742
lowerback -7.38315 -0.596005 -1.34376
upperback -2.86555 -0.6044 -0.96946
thorax 1.18594 -0.265793 -0.292014
lowerneck -21.7849 -0.821551 3.45831
upperneck 12.6122 -2.16278 0.170454
head 7.38635 -0.832703 -0.7652
rclavicle 1.52816e-015 -4.96962e-015
rhumerus 9.05416 33.1435 -4.78644
rradius 125.14
rwrist 189.298
rhand -20.3196 -20.93
rfingers 7.12502
rthumb 6.03122 -50.8241
lclavicle 1.52816e-015 -4.96962e-015
lhumerus -53.9015 -35.3232 69.9793
lradius 93.4587
lwrist 9.5296
lhand 1.07887 23.4617
lfingers 7.12502
lthumb 26.6233 51.6098
rfemur -6.98619 -9.95522 16.3906
rtibia -1.66979e-014
rfoot -4.07303 7.89373
rtoes -8.1816
lfemur -16.0274 7.39336 -20.7467
ltibia 16.7764
lfoot -13.0321 -5.12154
ltoes -26.2891
1467
root 1.59478 18.5466 0.283913 -204.907 87.3574 -217.955
lowerback -7.38726 -0.571181 -1.31119
upperback -2.80081 -0.57417 -0.985945
thorax 1.25427 -0.252167 -0.325139
lowerneck -21.8118 -0.859046 3.42684
upperneck 12.5381 -2.2199 0.267375
head 7.36688 -0.852511 -0.734631
rclavicle -2.09966e-015 -7.95139e-016
rhumerus 7.41832 34.9686 -5.67373
rradius 125.437
rwrist 190.453
rhand -20.5095 -19.9407
rfingers 7.12502
rthumb 5.84795 -49.84
lclavicle -2.09966e-015 -7.95139e-016
lhumerus -53.9915 -35.4745 69.7825
lradius 93.4398
lwrist 9.59773
lhand 1.43813 23.0905
lfingers 7.12502
lthumb 26.9671 51.186
rfemur -7.05439 -9.96494 16.4513
rtibia 1.82882e-014
rfoot -4.07883 7.88865
rtoes -8.0847
lfemur -16.0938 7.27771 -20.6887
ltibia 16.7338
lfoot -12.9557 -5.05112
ltoes -26.0775
1468
root 1.59895 18.5468 0.287175 -206.483 87.3413 -219.629
lowerback -7.39713 -0.557986 -1.4242
upperback -2.78231 -0.547962 -1.0046
thorax 1.27953 -0.238862 -0.278926
lowerneck -21.9185 -0.886926 3.33464
upperneck 12.5883 -2.2562 0.387858
head 7.40314 -0.860718 -0.685517
rclavicle 2.39784e-015 2.127e-014
rhumerus 5.59934 36.7363 -6.6741
rradius 125.806
rwrist 191.12
rhand -21.4371 -19.55
rfingers 7.12502
rthumb 4.95231 -49.4721
lclavicle 2.39784e-015 2.127e-014
lhumerus -54.3771 -35.5823 69.6898
lradius 93.6164
lwrist 9.50843
lhand 1.66264 22.8397
lfingers 7.12502
lthumb 27.1819 50.9017
rfemur -7.15833 -9.95149 16.3945
rtibia 3.18055e-015
rfoot -4.13363 7.91529
rtoes -8.53224
lfemur -16.1806 7.29463 -20.768
ltibia 16.6848
lfoot -12.8284 -5.11593
ltoes -25.2381
1469
root 1.60135 18.5474 0.289926 -206.141 87.3117 -219.371
lowerback -7.30472 -0.550404 -1.49695
upperback -2.80721 -0.53546 -0.989644
thorax 1.20342 -0.231749 -0.220738
lowerneck -22.0246 -0.934812 3.23431
upperneck 12.7074 -2.31879 0.508461
head 7.46209 -0.88067 -0.638802
rclavicle 5.67779e-015 7.15625e-015
rhumerus 3.83376 38.2829 -7.7978
rradius 125.821
rwrist 191.242
rhand -22.3526 -20.2457
rfingers 7.12502
rthumb 4.06824 -50.1866
lclavicle 5.67779e-015 7.15625e-015
lhumerus -55.0504 -35.7891 69.6862
lradius 94.0369
lwrist 9.43861
lhand 1.79766 22.544
lfingers 7.12502
lthumb 27.3111 50.5858
rfemur -7.24213 -9.98702 16.4139
rtibia -7.15625e-015
rfoot -4.15494 7.93214
rtoes -8.70888
lfemur -16.233 7.36337 -20.7888
ltibia 16.6301
lfoot -12.7499 -5.22947
ltoes -24.9772
1470
root 1.60168 18.5487 0.293995 -205.751 87.2905 -219.048
lowerback -7.19289 -0.536436 -1.53259
upperback -2.81039 -0.517562 -0.995833
thorax 1.13832 -0.222571 -0.204684
lowerneck -22.0499 -0.980731 3.18919
upperneck 12.6922 -2.38204 0.590872
head 7.46203 -0.904586 -0.612119
rclavicle 8.34896e-015 1.55052e-014
rhumerus 2.03829 39.8468 -9.11132
rradius 125.516
rwrist 191.652
rhand -22.3364 -21.0281
rfingers 7.12502
rthumb 4.08396 -50.9687
lclavicle 8.34896e-015 1.55052e-014
lhumerus -55.5022 -35.9045 69.5908
lradius 94.2387
lwrist 9.41974
lhand 2.05343 22.4134
lfingers 7.12502
lthumb 27.5557 50.4165
rfemur -7.30801 -10.014 16.4451
rtibia 0
rfoot -4.13461 7.91611
rtoes -8.59065
lfemur -16.2904 7.35546 -20.7863
ltibia 16.5876
lfoot -12.7725 -5.21613
ltoes -25.2659
1471
root 1.60505 18.5497 0.295556 -207.12 87.2274 -220.507
lowerback -7.17381 -0.541543 -1.62583
upperback -2.77617 -0.517978 -1.03008
thorax 1.16346 -0.222986 -0.187645
lowerneck -22.1109 -0.998659 3.16988
upperneck 12.6146 -2.40824 0.635436
head 7.44666 -0.914283 -0.597325
rclavicle 3.78933e-015 -6.16232e-015
rhumerus -0.116024 41.3752 -10.731
rradius 125.233
rwrist 192.472
rhand -22.4264 -21.7907
rfingers 7.12502
rthumb 3.99704 -51.7329
lclavicle 3.78933e-015 -6.16232e-015
lhumerus -55.7624 -35.9411 69.4502
lradius 94.1939
lwrist 9.39661
lhand 2.37256 22.2675
lfingers 7.12502
lthumb 27.8608 50.2215
rfemur -7.38839 -10.0466 16.3612
rtibia -1.90833e-014
rfoot -4.12221 7.91456
rtoes -8.51653
lfemur -16.3645 7.26461 -20.8863
ltibia 16.5758
lfoot -12.833 -5.11863
ltoes -25.4632
1472
root 1.61023 18.55 0.296793 -206.658 87.2042 -220.096
lowerback -7.16716 -0.552026 -1.62631
upperback -2.70994 -0.532864 -1.03262
thorax 1.22809 -0.231878 -0.191465
lowerneck -22.1376 -1.02169 3.06572
upperneck 12.4946 -2.43237 0.790705
head 7.41443 -0.916703 -0.53145
rclavicle -1.69215e-014 -5.56597e-015
rhumerus -2.27084 42.6517 -12.3655
rradius 125.017
rwrist 193.194
rhand -23.2657 -23.2781
rfingers 7.12502
rthumb 3.18648 -53.234
lclavicle -1.69215e-014 -5.56597e-015
lhumerus -56.1318 -35.8795 69.319
lradius 94.1921
lwrist 9.3464
lhand 2.63801 22.1873
lfingers 7.12502
lthumb 28.1146 50.0999
rfemur -7.42008 -10.0807 16.3717
rtibia 3.97569e-014
rfoot -4.11471 7.94843
rtoes -8.24143
lfemur -16.4027 7.24599 -20.8864
ltibia 16.5851
lfoot -12.7807 -5.14359
ltoes -25.1891
1473
root 1.61244 18.5506 0.29909 -206.297 87.1815 -219.798
lowerback -7.15279 -0.583228 -1.69065
upperback -2.62891 -0.572397 -0.993519
thorax 1.3049 -0.253147 -0.118685
lowerneck -22.2318 -1.01401 2.98211
upperneck 12.3999 -2.40975 0.862095
head 7.4005 -0.903717 -0.491578
rclavicle 8.46077e-015 1.49089e-014
rhumerus -4.21986 43.9188 -13.8837
rradius 124.834
rwrist 194.236
rhand -24.0683 -24.6613
rfingers 7.12502
rthumb 2.41139 -54.6274
lclavicle 8.46077e-015 1.49089e-014
lhumerus -56.5114 -35.6792 69.1628
lradius 94.2323
lwrist 9.23968
lhand 2.87871 22.0621
lfingers 7.12502
lthumb 28.3446 49.9367
rfemur -7.48206 -10.11 16.393
rtibia -1.74931e-014
rfoot -4.12878 8.00183
rtoes -8.36755
lfemur -16.4715 7.18543 -20.8834
ltibia 16.603
lfoot -12.7324 -5.09717
ltoes -25.2009
